<?xml version="1.0" encoding="UTF-8" standalone="no"?>
<svg width="1120px" height="1280px" viewBox="0 0 1120 1280" version="1.1" xmlns="http://www.w3.org/2000/svg" xmlns:xlink="http://www.w3.org/1999/xlink">
    <!-- Generator: Sketch 42 (36781) - http://www.bohemiancoding.com/sketch -->
    <title>Group 2</title>
    <desc>Created with Sketch.</desc>
    <defs></defs>
    <g id="Page-1" stroke="none" stroke-width="1" fill="none" fill-rule="evenodd">
        <g id="Desktop-HD" transform="translate(-160.000000, -39.000000)">
            <g id="Group" transform="translate(0.000000, -118.000000)">
                <g id="header">
                    <g id="Group-2" transform="translate(160.000000, 157.000000)">
                        <g id="stars" transform="translate(48.000000, 0.000000)">
                            <circle id="Oval-2" fill="#FFFFB2" cx="119" cy="95" r="3"></circle>
                            <circle id="Oval-2" fill="#14E68B" cx="183" cy="261" r="3"></circle>
                            <circle id="Oval-2" fill="#14E68B" cx="3" cy="148" r="3"></circle>
                            <circle id="Oval-2" fill="#14E68B" cx="448" cy="21" r="3"></circle>
                            <circle id="Oval-2" fill="#14E68B" cx="647" cy="3" r="3"></circle>
                            <circle id="Oval-2" fill="#FFFFB2" cx="444" cy="235" r="3"></circle>
                            <circle id="Oval-2" fill="#FFFFB2" cx="76" cy="236" r="3"></circle>
                            <circle id="Oval-2" fill="#FFFFB2" cx="44" cy="52" r="3"></circle>
                            <circle id="Oval-2" fill="#FFFFB2" cx="225.5" cy="161.5" r="4.5"></circle>
                            <circle id="Oval-2" fill="#FFFFB2" cx="328.5" cy="11.5" r="4.5"></circle>
                            <circle id="Oval-2" fill="#14E68B" cx="639.5" cy="234.5" r="4.5"></circle>
                            <circle id="Oval-2" fill="#FFFFB2" cx="853.5" cy="152.5" r="4.5"></circle>
                        </g>
                        <g id="stars" transform="translate(0.000000, 736.000000)">
                            <circle id="Oval-2" fill="#FFFFB2" cx="119" cy="49" r="3"></circle>
                            <circle id="Oval-2" fill="#14E68B" cx="215" cy="156" r="3"></circle>
                            <circle id="Oval-2" fill="#14E68B" cx="3" cy="102" r="3"></circle>
                            <circle id="Oval-2" fill="#14E68B" cx="438" cy="72" r="3"></circle>
                            <circle id="Oval-2" fill="#14E68B" cx="647" cy="3" r="3"></circle>
                            <circle id="Oval-2" fill="#FFFFB2" cx="444" cy="189" r="3"></circle>
                            <circle id="Oval-2" fill="#FFFFB2" cx="76" cy="190" r="3"></circle>
                            <circle id="Oval-2" fill="#FFFFB2" cx="44" cy="6" r="3"></circle>
                            <circle id="Oval-2" fill="#FFFFB2" cx="246.5" cy="115.5" r="4.5"></circle>
                            <circle id="Oval-2" fill="#FFFFB2" cx="346.5" cy="13.5" r="4.5"></circle>
                            <circle id="Oval-2" fill="#14E68B" cx="639.5" cy="188.5" r="4.5"></circle>
                            <circle id="Oval-2" fill="#FFFFB2" cx="743.5" cy="106.5" r="4.5"></circle>
                        </g>
                        <g id="stars" transform="translate(0.000000, 736.000000)">
                            <circle id="Oval-2" fill="#FFFFB2" cx="119" cy="49" r="3"></circle>
                            <circle id="Oval-2" fill="#14E68B" cx="215" cy="156" r="3"></circle>
                            <circle id="Oval-2" fill="#14E68B" cx="3" cy="102" r="3"></circle>
                            <circle id="Oval-2" fill="#14E68B" cx="438" cy="72" r="3"></circle>
                            <circle id="Oval-2" fill="#14E68B" cx="647" cy="3" r="3"></circle>
                            <circle id="Oval-2" fill="#FFFFB2" cx="444" cy="189" r="3"></circle>
                            <circle id="Oval-2" fill="#FFFFB2" cx="76" cy="190" r="3"></circle>
                            <circle id="Oval-2" fill="#FFFFB2" cx="44" cy="6" r="3"></circle>
                            <circle id="Oval-2" fill="#FFFFB2" cx="246.5" cy="115.5" r="4.5"></circle>
                            <circle id="Oval-2" fill="#FFFFB2" cx="346.5" cy="13.5" r="4.5"></circle>
                            <circle id="Oval-2" fill="#14E68B" cx="639.5" cy="188.5" r="4.5"></circle>
                            <circle id="Oval-2" fill="#FFFFB2" cx="743.5" cy="106.5" r="4.5"></circle>
                        </g>
                        <g id="stars" transform="translate(277.000000, 1087.000000)">
                            <circle id="Oval-2" fill="#FFFFB2" cx="119" cy="49" r="3"></circle>
                            <circle id="Oval-2" fill="#14E68B" cx="215" cy="156" r="3"></circle>
                            <circle id="Oval-2" fill="#14E68B" cx="3" cy="102" r="3"></circle>
                            <circle id="Oval-2" fill="#14E68B" cx="438" cy="72" r="3"></circle>
                            <circle id="Oval-2" fill="#14E68B" cx="647" cy="3" r="3"></circle>
                            <circle id="Oval-2" fill="#FFFFB2" cx="444" cy="189" r="3"></circle>
                            <circle id="Oval-2" fill="#FFFFB2" cx="76" cy="190" r="3"></circle>
                            <circle id="Oval-2" fill="#FFFFB2" cx="44" cy="6" r="3"></circle>
                            <circle id="Oval-2" fill="#FFFFB2" cx="246.5" cy="115.5" r="4.5"></circle>
                            <circle id="Oval-2" fill="#FFFFB2" cx="346.5" cy="13.5" r="4.5"></circle>
                            <circle id="Oval-2" fill="#14E68B" cx="639.5" cy="188.5" r="4.5"></circle>
                            <circle id="Oval-2" fill="#FFFFB2" cx="743.5" cy="106.5" r="4.5"></circle>
                        </g>
                        <g id="stars" transform="translate(488.000000, 440.500000) rotate(-180.000000) translate(-488.000000, -440.500000) translate(0.000000, 344.000000)">
                            <circle id="Oval-2" fill="#FFFFB2" cx="347" cy="49" r="3"></circle>
                            <circle id="Oval-2" fill="#14E68B" cx="3" cy="156" r="3"></circle>
                            <circle id="Oval-2" fill="#14E68B" cx="231" cy="102" r="3"></circle>
                            <circle id="Oval-2" fill="#14E68B" cx="666" cy="72" r="3"></circle>
                            <circle id="Oval-2" fill="#14E68B" cx="875" cy="3" r="3"></circle>
                            <circle id="Oval-2" fill="#FFFFB2" cx="672" cy="189" r="3"></circle>
                            <circle id="Oval-2" fill="#FFFFB2" cx="272" cy="6" r="3"></circle>
                            <circle id="Oval-2" fill="#FFFFB2" cx="474.5" cy="115.5" r="4.5"></circle>
                            <circle id="Oval-2" fill="#FFFFB2" cx="574.5" cy="13.5" r="4.5"></circle>
                            <circle id="Oval-2" fill="#14E68B" cx="867.5" cy="188.5" r="4.5"></circle>
                            <circle id="Oval-2" fill="#FFFFB2" cx="971.5" cy="106.5" r="4.5"></circle>
                        </g>
                        <g id="stars" transform="translate(746.000000, 639.500000) rotate(-180.000000) translate(-746.000000, -639.500000) translate(372.000000, 543.000000)">
                            <circle id="Oval-2" fill="#FFFFB2" cx="119" cy="49" r="3"></circle>
                            <circle id="Oval-2" fill="#14E68B" cx="215" cy="156" r="3"></circle>
                            <circle id="Oval-2" fill="#14E68B" cx="3" cy="102" r="3"></circle>
                            <circle id="Oval-2" fill="#14E68B" cx="438" cy="72" r="3"></circle>
                            <circle id="Oval-2" fill="#14E68B" cx="647" cy="3" r="3"></circle>
                            <circle id="Oval-2" fill="#FFFFB2" cx="444" cy="189" r="3"></circle>
                            <circle id="Oval-2" fill="#FFFFB2" cx="76" cy="190" r="3"></circle>
                            <circle id="Oval-2" fill="#FFFFB2" cx="44" cy="6" r="3"></circle>
                            <circle id="Oval-2" fill="#FFFFB2" cx="246.5" cy="115.5" r="4.5"></circle>
                            <circle id="Oval-2" fill="#FFFFB2" cx="346.5" cy="13.5" r="4.5"></circle>
                            <circle id="Oval-2" fill="#14E68B" cx="639.5" cy="188.5" r="4.5"></circle>
                            <circle id="Oval-2" fill="#FFFFB2" cx="743.5" cy="106.5" r="4.5"></circle>
                        </g>
                    </g>
                </g>
            </g>
        </g>
    </g>
</svg>